<?xml version="1.0" encoding="UTF-8" standalone="no"?>
<!DOCTYPE svg PUBLIC "-//W3C//DTD SVG 1.1//EN"
 "http://www.w3.org/Graphics/SVG/1.1/DTD/svg11.dtd">
<!-- Generated by graphviz version 2.40.1 (20161225.0304)
 -->
<!-- Title: dag Pages: 1 -->
<svg width="159pt" height="280pt"
 viewBox="0.00 0.00 159.00 280.00" xmlns="http://www.w3.org/2000/svg" xmlns:xlink="http://www.w3.org/1999/xlink">
<g id="graph0" class="graph" transform="scale(1 1) rotate(0) translate(4 276)">
<title>dag</title>
<polygon fill="#ffffff" stroke="transparent" points="-4,4 -4,-276 155,-276 155,4 -4,4"/>
<!-- a -->
<g id="node1" class="node">
<title>a</title>
<polygon fill="#d3d3d3" stroke="#000000" points="36,-36 0,-36 0,0 36,0 36,-36"/>
<text text-anchor="middle" x="18" y="-14.3" font-family="Times,serif" font-size="14.00" fill="#000000">b</text>
</g>
<!-- add_a_b -->
<g id="node3" class="node">
<title>add_a_b</title>
<ellipse fill="#d3d3d3" stroke="#000000" cx="75" cy="-90" rx="27" ry="18"/>
<text text-anchor="middle" x="75" y="-86.3" font-family="Times,serif" font-size="14.00" fill="#000000">+</text>
</g>
<!-- a&#45;&gt;add_a_b -->
<g id="edge1" class="edge">
<title>a&#45;&gt;add_a_b</title>
<path fill="none" stroke="#000000" d="M32.3835,-36.1686C39.5257,-45.1904 48.2504,-56.211 55.941,-65.9255"/>
<polygon fill="#000000" stroke="#000000" points="53.4163,-68.3752 62.3675,-74.0432 58.9046,-64.0303 53.4163,-68.3752"/>
</g>
<!-- b -->
<g id="node2" class="node">
<title>b</title>
<polygon fill="#d3d3d3" stroke="#000000" points="151,-36 115,-36 115,0 151,0 151,-36"/>
<text text-anchor="middle" x="133" y="-14.3" font-family="Times,serif" font-size="14.00" fill="#000000">a</text>
</g>
<!-- b&#45;&gt;add_a_b -->
<g id="edge2" class="edge">
<title>b&#45;&gt;add_a_b</title>
<path fill="none" stroke="#000000" d="M118.3642,-36.1686C111.0232,-45.2815 102.0394,-56.4339 94.1565,-66.2195"/>
<polygon fill="#000000" stroke="#000000" points="91.4018,-64.06 87.8541,-74.0432 96.8531,-68.4513 91.4018,-64.06"/>
</g>
<!-- add_subs -->
<g id="node4" class="node">
<title>add_subs</title>
<ellipse fill="#d3d3d3" stroke="#000000" cx="75" cy="-162" rx="27" ry="18"/>
<text text-anchor="middle" x="75" y="-158.3" font-family="Times,serif" font-size="14.00" fill="#000000">+</text>
</g>
<!-- add_a_b&#45;&gt;add_subs -->
<g id="edge3" class="edge">
<title>add_a_b&#45;&gt;add_subs</title>
<path fill="none" stroke="#000000" d="M53.2928,-100.9353C45.2204,-111.8249 43.6274,-128.7889 48.5137,-142.076"/>
<polygon fill="#000000" stroke="#000000" points="45.4454,-143.7608 53.2168,-150.9618 51.6322,-140.4862 45.4454,-143.7608"/>
</g>
<!-- add_a_b&#45;&gt;add_subs -->
<g id="edge4" class="edge">
<title>add_a_b&#45;&gt;add_subs</title>
<path fill="none" stroke="#000000" d="M97.0239,-100.6238C105.5725,-111.5779 107.2494,-128.9096 102.0548,-142.3659"/>
<polygon fill="#000000" stroke="#000000" points="98.8685,-140.8936 97.0579,-151.3326 104.9832,-144.3012 98.8685,-140.8936"/>
</g>
<!-- result -->
<g id="node5" class="node">
<title>result</title>
<polygon fill="#d3d3d3" stroke="#000000" points="103,-272 47,-272 47,-216 103,-216 103,-272"/>
<text text-anchor="middle" x="75" y="-240.3" font-family="Times,serif" font-size="14.00" fill="#000000">result</text>
</g>
<!-- add_subs&#45;&gt;result -->
<g id="edge5" class="edge">
<title>add_subs&#45;&gt;result</title>
<path fill="none" stroke="#000000" d="M75,-180.1985C75,-187.7271 75,-196.7599 75,-205.628"/>
<polygon fill="#000000" stroke="#000000" points="71.5001,-205.8627 75,-215.8627 78.5001,-205.8628 71.5001,-205.8627"/>
</g>
</g>
</svg>
