<?xml version="1.0" encoding="UTF-8" standalone="no"?>
<!DOCTYPE svg PUBLIC "-//W3C//DTD SVG 1.1//EN"
 "http://www.w3.org/Graphics/SVG/1.1/DTD/svg11.dtd">
<!-- Generated by graphviz version 2.40.1 (20161225.0304)
 -->
<!-- Title: redundant_tree Pages: 1 -->
<svg width="398pt" height="280pt"
 viewBox="0.00 0.00 398.00 280.00" xmlns="http://www.w3.org/2000/svg" xmlns:xlink="http://www.w3.org/1999/xlink">
<g id="graph0" class="graph" transform="scale(1 1) rotate(0) translate(4 276)">
<title>redundant_tree</title>
<polygon fill="#ffffff" stroke="transparent" points="-4,4 -4,-276 394,-276 394,4 -4,4"/>
<!-- a_1 -->
<g id="node1" class="node">
<title>a_1</title>
<polygon fill="#d3d3d3" stroke="#000000" points="36,-36 0,-36 0,0 36,0 36,-36"/>
<text text-anchor="middle" x="18" y="-14.3" font-family="Times,serif" font-size="14.00" fill="#000000">b</text>
</g>
<!-- add_a_b_1 -->
<g id="node3" class="node">
<title>add_a_b_1</title>
<ellipse fill="#d3d3d3" stroke="#000000" cx="128" cy="-90" rx="27" ry="18"/>
<text text-anchor="middle" x="128" y="-86.3" font-family="Times,serif" font-size="14.00" fill="#000000">+</text>
</g>
<!-- a_1&#45;&gt;add_a_b_1 -->
<g id="edge1" class="edge">
<title>a_1&#45;&gt;add_a_b_1</title>
<path fill="none" stroke="#000000" d="M36.1643,-29.8893C53.5993,-41.3014 80.1742,-58.6958 100.2585,-71.8419"/>
<polygon fill="#000000" stroke="#000000" points="98.414,-74.8177 108.6978,-77.3659 102.2476,-68.9608 98.414,-74.8177"/>
</g>
<!-- b_1 -->
<g id="node2" class="node">
<title>b_1</title>
<polygon fill="#d3d3d3" stroke="#000000" points="151,-36 115,-36 115,0 151,0 151,-36"/>
<text text-anchor="middle" x="133" y="-14.3" font-family="Times,serif" font-size="14.00" fill="#000000">a</text>
</g>
<!-- b_1&#45;&gt;add_a_b_1 -->
<g id="edge2" class="edge">
<title>b_1&#45;&gt;add_a_b_1</title>
<path fill="none" stroke="#000000" d="M131.7383,-36.1686C131.2035,-43.869 130.5677,-53.0257 129.9734,-61.5834"/>
<polygon fill="#000000" stroke="#000000" points="126.48,-61.3683 129.2787,-71.5867 133.4632,-61.8533 126.48,-61.3683"/>
</g>
<!-- add_subs -->
<g id="node7" class="node">
<title>add_subs</title>
<ellipse fill="#d3d3d3" stroke="#000000" cx="194" cy="-162" rx="27" ry="18"/>
<text text-anchor="middle" x="194" y="-158.3" font-family="Times,serif" font-size="14.00" fill="#000000">+</text>
</g>
<!-- add_a_b_1&#45;&gt;add_subs -->
<g id="edge5" class="edge">
<title>add_a_b_1&#45;&gt;add_subs</title>
<path fill="none" stroke="#000000" d="M142.321,-105.6229C151.2292,-115.341 162.8452,-128.013 172.8075,-138.8809"/>
<polygon fill="#000000" stroke="#000000" points="170.3696,-141.401 179.7069,-146.4076 175.5297,-136.6709 170.3696,-141.401"/>
</g>
<!-- a_2 -->
<g id="node4" class="node">
<title>a_2</title>
<polygon fill="#d3d3d3" stroke="#000000" points="275,-36 239,-36 239,0 275,0 275,-36"/>
<text text-anchor="middle" x="257" y="-14.3" font-family="Times,serif" font-size="14.00" fill="#000000">b</text>
</g>
<!-- add_a_b_2 -->
<g id="node6" class="node">
<title>add_a_b_2</title>
<ellipse fill="#d3d3d3" stroke="#000000" cx="261" cy="-90" rx="27" ry="18"/>
<text text-anchor="middle" x="261" y="-86.3" font-family="Times,serif" font-size="14.00" fill="#000000">+</text>
</g>
<!-- a_2&#45;&gt;add_a_b_2 -->
<g id="edge3" class="edge">
<title>a_2&#45;&gt;add_a_b_2</title>
<path fill="none" stroke="#000000" d="M258.0094,-36.1686C258.4372,-43.869 258.9459,-53.0257 259.4213,-61.5834"/>
<polygon fill="#000000" stroke="#000000" points="255.9276,-61.7963 259.977,-71.5867 262.9169,-61.408 255.9276,-61.7963"/>
</g>
<!-- b_2 -->
<g id="node5" class="node">
<title>b_2</title>
<polygon fill="#d3d3d3" stroke="#000000" points="390,-36 354,-36 354,0 390,0 390,-36"/>
<text text-anchor="middle" x="372" y="-14.3" font-family="Times,serif" font-size="14.00" fill="#000000">a</text>
</g>
<!-- b_2&#45;&gt;add_a_b_2 -->
<g id="edge4" class="edge">
<title>b_2&#45;&gt;add_a_b_2</title>
<path fill="none" stroke="#000000" d="M353.6706,-29.8893C336.0771,-41.3014 309.2606,-58.6958 288.9937,-71.8419"/>
<polygon fill="#000000" stroke="#000000" points="286.9626,-68.9875 280.4776,-77.3659 290.772,-74.8603 286.9626,-68.9875"/>
</g>
<!-- add_a_b_2&#45;&gt;add_subs -->
<g id="edge6" class="edge">
<title>add_a_b_2&#45;&gt;add_subs</title>
<path fill="none" stroke="#000000" d="M246.462,-105.6229C237.4188,-115.341 225.6268,-128.013 215.5136,-138.8809"/>
<polygon fill="#000000" stroke="#000000" points="212.7597,-136.7025 208.5096,-146.4076 217.8842,-141.4712 212.7597,-136.7025"/>
</g>
<!-- result -->
<g id="node8" class="node">
<title>result</title>
<polygon fill="#d3d3d3" stroke="#000000" points="222,-272 166,-272 166,-216 222,-216 222,-272"/>
<text text-anchor="middle" x="194" y="-240.3" font-family="Times,serif" font-size="14.00" fill="#000000">result</text>
</g>
<!-- add_subs&#45;&gt;result -->
<g id="edge7" class="edge">
<title>add_subs&#45;&gt;result</title>
<path fill="none" stroke="#000000" d="M194,-180.1985C194,-187.7271 194,-196.7599 194,-205.628"/>
<polygon fill="#000000" stroke="#000000" points="190.5001,-205.8627 194,-215.8627 197.5001,-205.8628 190.5001,-205.8627"/>
</g>
</g>
</svg>
