<?xml version="1.0" encoding="UTF-8" standalone="no"?>
<!DOCTYPE svg PUBLIC "-//W3C//DTD SVG 1.1//EN"
 "http://www.w3.org/Graphics/SVG/1.1/DTD/svg11.dtd">
<!-- Generated by graphviz version 2.40.1 (20161225.0304)
 -->
<!-- Title: tree_full Pages: 1 -->
<svg width="216pt" height="332pt"
 viewBox="0.00 0.00 216.00 332.00" xmlns="http://www.w3.org/2000/svg" xmlns:xlink="http://www.w3.org/1999/xlink">
<g id="graph0" class="graph" transform="scale(1 1) rotate(0) translate(4 328)">
<title>tree_full</title>
<polygon fill="#ffffff" stroke="transparent" points="-4,4 -4,-328 212,-328 212,4 -4,4"/>
<!-- _1 -->
<g id="node1" class="node">
<title>_1</title>
<polygon fill="#d3d3d3" stroke="#000000" points="36,-36 0,-36 0,0 36,0 36,-36"/>
<text text-anchor="middle" x="18" y="-14.3" font-family="Times,serif" font-size="14.00" fill="#000000">1</text>
</g>
<!-- add_1_2 -->
<g id="node3" class="node">
<title>add_1_2</title>
<ellipse fill="#d3d3d3" stroke="#000000" cx="75" cy="-90" rx="27" ry="18"/>
<text text-anchor="middle" x="75" y="-86.3" font-family="Times,serif" font-size="14.00" fill="#000000">f</text>
</g>
<!-- _1&#45;&gt;add_1_2 -->
<g id="edge1" class="edge">
<title>_1&#45;&gt;add_1_2</title>
<path fill="none" stroke="#000000" d="M32.3835,-36.1686C39.5257,-45.1904 48.2504,-56.211 55.941,-65.9255"/>
<polygon fill="#000000" stroke="#000000" points="53.4163,-68.3752 62.3675,-74.0432 58.9046,-64.0303 53.4163,-68.3752"/>
</g>
<!-- _2 -->
<g id="node2" class="node">
<title>_2</title>
<polygon fill="#d3d3d3" stroke="#000000" points="151,-36 115,-36 115,0 151,0 151,-36"/>
<text text-anchor="middle" x="133" y="-14.3" font-family="Times,serif" font-size="14.00" fill="#000000">2</text>
</g>
<!-- _2&#45;&gt;add_1_2 -->
<g id="edge2" class="edge">
<title>_2&#45;&gt;add_1_2</title>
<path fill="none" stroke="#000000" d="M118.3642,-36.1686C111.0232,-45.2815 102.0394,-56.4339 94.1565,-66.2195"/>
<polygon fill="#000000" stroke="#000000" points="91.4018,-64.06 87.8541,-74.0432 96.8531,-68.4513 91.4018,-64.06"/>
</g>
<!-- a -->
<g id="node4" class="node">
<title>a</title>
<polygon fill="#d3d3d3" stroke="#000000" points="93,-180 57,-180 57,-144 93,-144 93,-180"/>
<text text-anchor="middle" x="75" y="-158.3" font-family="Times,serif" font-size="14.00" fill="#000000">a</text>
</g>
<!-- add_1_2&#45;&gt;a -->
<g id="edge3" class="edge">
<title>add_1_2&#45;&gt;a</title>
<path fill="none" stroke="#000000" d="M75,-108.1686C75,-115.869 75,-125.0257 75,-133.5834"/>
<polygon fill="#000000" stroke="#000000" points="71.5001,-133.5867 75,-143.5867 78.5001,-133.5868 71.5001,-133.5867"/>
</g>
<!-- add_a_3 -->
<g id="node6" class="node">
<title>add_a_3</title>
<ellipse fill="#d3d3d3" stroke="#000000" cx="132" cy="-234" rx="27" ry="18"/>
<text text-anchor="middle" x="132" y="-230.3" font-family="Times,serif" font-size="14.00" fill="#000000">f</text>
</g>
<!-- a&#45;&gt;add_a_3 -->
<g id="edge4" class="edge">
<title>a&#45;&gt;add_a_3</title>
<path fill="none" stroke="#000000" d="M89.3835,-180.1686C96.5257,-189.1904 105.2504,-200.211 112.941,-209.9255"/>
<polygon fill="#000000" stroke="#000000" points="110.4163,-212.3752 119.3675,-218.0432 115.9046,-208.0303 110.4163,-212.3752"/>
</g>
<!-- _3 -->
<g id="node5" class="node">
<title>_3</title>
<polygon fill="#d3d3d3" stroke="#000000" points="208,-180 172,-180 172,-144 208,-144 208,-180"/>
<text text-anchor="middle" x="190" y="-158.3" font-family="Times,serif" font-size="14.00" fill="#000000">3</text>
</g>
<!-- _3&#45;&gt;add_a_3 -->
<g id="edge5" class="edge">
<title>_3&#45;&gt;add_a_3</title>
<path fill="none" stroke="#000000" d="M175.3642,-180.1686C168.0232,-189.2815 159.0394,-200.4339 151.1565,-210.2195"/>
<polygon fill="#000000" stroke="#000000" points="148.4018,-208.06 144.8541,-218.0432 153.8531,-212.4513 148.4018,-208.06"/>
</g>
<!-- b -->
<g id="node7" class="node">
<title>b</title>
<polygon fill="#d3d3d3" stroke="#000000" points="150,-324 114,-324 114,-288 150,-288 150,-324"/>
<text text-anchor="middle" x="132" y="-302.3" font-family="Times,serif" font-size="14.00" fill="#000000">b</text>
</g>
<!-- add_a_3&#45;&gt;b -->
<g id="edge6" class="edge">
<title>add_a_3&#45;&gt;b</title>
<path fill="none" stroke="#000000" d="M132,-252.1686C132,-259.869 132,-269.0257 132,-277.5834"/>
<polygon fill="#000000" stroke="#000000" points="128.5001,-277.5867 132,-287.5867 135.5001,-277.5868 128.5001,-277.5867"/>
</g>
</g>
</svg>
