<?xml version="1.0" encoding="UTF-8" standalone="no"?>
<!DOCTYPE svg PUBLIC "-//W3C//DTD SVG 1.1//EN"
 "http://www.w3.org/Graphics/SVG/1.1/DTD/svg11.dtd">
<!-- Generated by graphviz version 2.40.1 (20161225.0304)
 -->
<!-- Title: tree_computed Pages: 1 -->
<svg width="169pt" height="198pt"
 viewBox="0.00 0.00 169.00 198.00" xmlns="http://www.w3.org/2000/svg" xmlns:xlink="http://www.w3.org/1999/xlink">
<g id="graph0" class="graph" transform="scale(1 1) rotate(0) translate(4 194)">
<title>tree_computed</title>
<polygon fill="#ffffff" stroke="transparent" points="-4,4 -4,-194 165,-194 165,4 -4,4"/>
<!-- a -->
<g id="node1" class="node">
<title>a</title>
<polygon fill="#d3d3d3" stroke="#000000" points="46,-46 0,-46 0,0 46,0 46,-46"/>
<text text-anchor="middle" x="23" y="-19.3" font-family="Times,serif" font-size="14.00" fill="#000000">a (3)</text>
</g>
<!-- add_a_3 -->
<g id="node3" class="node">
<title>add_a_3</title>
<ellipse fill="#d3d3d3" stroke="#000000" cx="83" cy="-100" rx="27" ry="18"/>
<text text-anchor="middle" x="83" y="-96.3" font-family="Times,serif" font-size="14.00" fill="#000000">f</text>
</g>
<!-- a&#45;&gt;add_a_3 -->
<g id="edge1" class="edge">
<title>a&#45;&gt;add_a_3</title>
<path fill="none" stroke="#000000" d="M41.002,-46.1025C48.3706,-55.5589 56.8953,-66.499 64.3313,-76.0419"/>
<polygon fill="#000000" stroke="#000000" points="61.6219,-78.2591 70.5293,-83.9959 67.1435,-73.9566 61.6219,-78.2591"/>
</g>
<!-- _3 -->
<g id="node2" class="node">
<title>_3</title>
<polygon fill="#d3d3d3" stroke="#000000" points="161,-41 125,-41 125,-5 161,-5 161,-41"/>
<text text-anchor="middle" x="143" y="-19.3" font-family="Times,serif" font-size="14.00" fill="#000000">3</text>
</g>
<!-- _3&#45;&gt;add_a_3 -->
<g id="edge2" class="edge">
<title>_3&#45;&gt;add_a_3</title>
<path fill="none" stroke="#000000" d="M128.7808,-41.2479C120.7173,-51.5961 110.5274,-64.6732 101.8093,-75.8614"/>
<polygon fill="#000000" stroke="#000000" points="98.8747,-73.9332 95.489,-83.9725 104.3963,-78.2357 98.8747,-73.9332"/>
</g>
<!-- b -->
<g id="node4" class="node">
<title>b</title>
<polygon fill="#d3d3d3" stroke="#000000" points="101,-190 65,-190 65,-154 101,-154 101,-190"/>
<text text-anchor="middle" x="83" y="-168.3" font-family="Times,serif" font-size="14.00" fill="#000000">b</text>
</g>
<!-- add_a_3&#45;&gt;b -->
<g id="edge3" class="edge">
<title>add_a_3&#45;&gt;b</title>
<path fill="none" stroke="#000000" d="M83,-118.1686C83,-125.869 83,-135.0257 83,-143.5834"/>
<polygon fill="#000000" stroke="#000000" points="79.5001,-143.5867 83,-153.5867 86.5001,-143.5868 79.5001,-143.5867"/>
</g>
</g>
</svg>
